name C:\Users\u0101727\Documents\MyRepositories\upper-imu-dc\Results\main_tracking\Case_22\kinematics.mot
datacolumns 10
datarows 42
range 2.04000000 2.45000000
endheader 
time	clav_prot	clav_elev	scapula_abduction	scapula_elevation	scapula_upward_rot	scapula_winging	plane_elv	shoulder_elv	axial_rot	
          2.04000000	        -21.11166425	          9.15525296	         -7.37495969	          3.34683259	         24.30329606	          0.19400358	         13.75450173	          7.78597417	         15.50537188	
          2.05000000	        -20.56421215	          8.75264876	         -6.77521520	          3.27082990	         23.49547381	          0.42071603	         12.51874007	          8.32807238	         16.43986204	
          2.06000000	        -20.18360325	          8.23905866	         -6.39511601	          3.09410664	         22.72951372	          0.63211027	         11.20464500	          8.86795779	         17.39464501	
          2.07000000	        -19.95551657	          7.66319990	         -6.20629066	          2.84373172	         22.04560511	          0.82533885	          9.87172993	          9.36722254	         18.31654496	
          2.08000000	        -19.84887731	          7.07959523	         -6.16460372	          2.55659478	         21.46426455	          0.99882861	          8.56628943	          9.80208607	         19.15990972	
          2.09000000	        -19.83469222	          6.52943330	         -6.23131297	          2.26284546	         20.99254434	          1.15078346	          7.31595699	         10.16131898	         19.89083817	
          2.10000000	        -19.89188936	          6.03627666	         -6.37829881	          1.98097097	         20.63012733	          1.27925412	          6.13015452	         10.44177775	         20.48911876	
          2.11000000	        -20.00836491	          5.60794841	         -6.58916275	          1.71829521	         20.37280406	          1.38292801	          5.00401727	         10.64529307	         20.94842466	
          2.12000000	        -20.17766834	          5.24174642	         -6.85563681	          1.47493984	         20.21283961	          1.46188084	          3.92487444	         10.77753206	         21.27458087	
          2.13000000	        -20.38964131	          4.93172285	         -7.16565812	          1.25041194	         20.13631908	          1.51798537	          2.87927217	         10.84877441	         21.48309523	
          2.14000000	        -20.61035179	          4.67689355	         -7.47479043	          1.05233401	         20.11710191	          1.55522552	          1.86004720	         10.87721939	         21.59604863	
          2.15000000	        -20.74242542	          4.48579951	         -7.64558408	          0.90512708	         20.10443310	          1.58125438	          0.87044710	         10.89915494	         21.64051596	
          2.16000000	        -20.72994479	          4.35937860	         -7.62480161	          0.82981789	         20.02925910	          1.61316520	         -0.08447847	         10.96973654	         21.64652777	
          2.17000000	        -20.58097176	          4.27938230	         -7.43208076	          0.81698670	         19.87284253	          1.65739916	         -1.00369067	         11.10666960	         21.64265591	
          2.18000000	        -20.15633242	          4.19357791	         -6.77105513	          0.82534317	         19.67350769	          1.69313187	         -1.89621645	         11.28104624	         21.65774703	
          2.19000000	        -19.76169883	          4.07149992	         -6.14486344	          0.80296829	         19.48048599	          1.72656900	         -2.76033879	         11.46182643	         21.71029950	
          2.20000000	        -19.44072390	          3.88943202	         -5.61108519	          0.72496856	         19.31329779	          1.75972047	         -3.59580577	         11.63727463	         21.81844079	
          2.21000000	        -19.19476814	          3.64097768	         -5.17134510	          0.58662351	         19.17182735	          1.79649994	         -4.40076065	         11.80865279	         21.99621602	
          2.22000000	        -19.00852615	          3.32996895	         -4.80726260	          0.39409887	         19.04647636	          1.84090367	         -5.17548234	         11.98307001	         22.25535859	
          2.23000000	        -18.86124190	          2.96579471	         -4.49431615	          0.15868654	         18.92474059	          1.89598606	         -5.92423671	         12.16891349	         22.60780286	
          2.24000000	        -18.73261287	          2.56052767	         -4.20856497	         -0.10671168	         18.79542716	          1.96330394	         -6.65606547	         12.37292020	         23.06869643	
          2.25000000	        -18.60624552	          2.12706125	         -3.93058208	         -0.38974467	         18.65106110	          2.04275842	         -7.38449327	         12.59863395	         23.65825672	
          2.26000000	        -18.47208867	          1.67775113	         -3.64850060	         -0.68005098	         18.48916569	          2.13278495	         -8.12585965	         12.84573641	         24.40100356	
          2.27000000	        -18.32817313	          1.22336402	         -3.36050892	         -0.97022427	         18.31271021	          2.23086614	         -8.89619798	         13.11001971	         25.32137545	
          2.28000000	        -18.17947506	          0.77266936	         -3.07404654	         -1.25554504	         18.12809826	          2.33438958	         -9.70525342	         13.38534704	         26.43594003	
          2.29000000	        -18.04118301	          0.33157292	         -2.81027702	         -1.53524323	         17.94699209	          2.44124735	        -10.55461381	         13.66197351	         27.74570299	
          2.30000000	        -17.93952001	         -0.09732216	         -2.60551545	         -1.81287134	         17.78631962	          2.55060623	        -11.43536166	         13.92636205	         29.22875688	
          2.31000000	        -17.91097692	         -0.51457848	         -2.51049718	         -2.09596032	         17.66741340	          2.66333668	        -12.32730460	         14.16155681	         30.83582056	
          2.32000000	        -18.00015112	         -0.92308794	         -2.58761711	         -2.39494047	         17.61453956	          2.78165299	        -13.20138953	         14.34787557	         32.49141914	
          2.33000000	        -18.25471175	         -1.32604411	         -2.90448100	         -2.72053155	         17.65140207	          2.90765391	        -14.02478424	         14.46515093	         34.10177013	
          2.34000000	        -18.71577713	         -1.72305548	         -3.52205394	         -3.07857558	         17.79387344	          3.04072735	        -14.76734030	         14.49801284	         35.56893538	
          2.35000000	        -19.39935426	         -2.10388608	         -4.47222408	         -3.46090459	         18.03573015	          3.17467058	        -15.40589579	         14.44717415	         36.80823244	
          2.36000000	        -20.25548307	         -2.44093709	         -5.70429269	         -3.83145483	         18.32374092	          3.29697598	        -15.91904586	         14.35012259	         37.76432526	
          2.37000000	        -21.01289936	         -2.69103273	         -6.84731837	         -4.10675364	         18.50794834	          3.39616551	        -16.25747600	         14.32579108	         38.42432292	
          2.38000000	        -20.95886091	         -2.87806989	         -6.78229877	         -4.21498424	         18.38421795	          3.47956963	        -16.33221238	         14.54134220	         38.79948929	
          2.39000000	        -20.77628121	         -3.00054397	         -6.58035261	         -4.24023170	         18.14878209	          3.56025335	        -16.25151964	         14.83048450	         38.93085361	
          2.40000000	        -20.82535337	         -3.11633475	         -6.71135702	         -4.30155863	         18.02968661	          3.63067951	        -16.18747822	         15.01011975	         38.87300218	
          2.41000000	        -21.09745473	         -3.22927635	         -7.15641177	         -4.40263967	         18.03128400	          3.68960002	        -16.18972661	         15.08062459	         38.68931010	
          2.42000000	        -21.06479041	         -3.33050129	         -7.11374366	         -4.46180383	         17.96730018	          3.73491704	        -16.16278507	         15.18964378	         38.45070552	
          2.43000000	        -20.60636976	         -3.39905460	         -6.49323458	         -4.41139997	         17.65299652	          3.79310099	        -15.95084928	         15.48041493	         38.20500642	
          2.44000000	        -20.07985597	         -3.44945769	         -5.80312899	         -4.32503026	         17.26361382	          3.85011332	        -15.66135012	         15.80670108	         37.99696455	
          2.45000000	        -19.91510589	         -3.53586198	         -5.63067265	         -4.32699335	         17.04247440	          3.91334870	        -15.45435485	         15.97663895	         37.85176597	
